<svg id="Layer_1" data-name="Layer 1" xmlns="http://www.w3.org/2000/svg" width="79" height="79" viewBox="0 0 79 79"><defs><style>.cls-1{fill:#ffd86b;}.cls-2,.cls-4{fill:none;stroke:#010101;stroke-linecap:round;stroke-miterlimit:10;}.cls-2{stroke-width:5px;}.cls-3{fill:#010101;}.cls-4{stroke-width:4px;}.cls-5{fill:#6887c5;}</style></defs><title>Emoji_Sad</title><g id="Sad"><circle class="cls-1" cx="39.5" cy="39.5" r="39.5"/><path class="cls-2" d="M15.17,34A8.05,8.05,0,0,1,20,29.66a7.77,7.77,0,0,1,5,.26" transform="translate(-0.21 -0.08)"/><ellipse class="cls-3" cx="22.08" cy="41.81" rx="4.44" ry="5.14"/><path class="cls-2" d="M63.94,34a8.05,8.05,0,0,0-4.88-4.37,7.76,7.76,0,0,0-5,.26" transform="translate(-0.21 -0.08)"/><ellipse class="cls-3" cx="56.61" cy="41.81" rx="4.44" ry="5.14"/><path class="cls-4" d="M28.14,63.44a12.4,12.4,0,0,1,10.53-6.68,12,12,0,0,1,11.56,6.68" transform="translate(-0.21 -0.08)"/><path class="cls-5" d="M61.6,57.64l-5,12.84a5.69,5.69,0,0,0,1.17,6h0a5.69,5.69,0,0,0,8.27,0h0a5.69,5.69,0,0,0,1.17-6l-5-12.84A.37.37,0,0,0,61.6,57.64Z" transform="translate(-0.21 -0.08)"/></g></svg>