<svg id="Layer_1" data-name="Layer 1" xmlns="http://www.w3.org/2000/svg" width="79.16" height="79.16" viewBox="0 0 79.16 79.16"><defs><style>.cls-1{fill:#ffd86b;}.cls-2{fill:#5b5858;}.cls-3{fill:#f37669;}.cls-4{fill:none;stroke:#010101;stroke-linecap:round;stroke-miterlimit:10;stroke-width:5px;}</style></defs><title>emoji_happy</title><g id="Haha"><circle class="cls-1" cx="39.58" cy="39.58" r="39.58"/><path class="cls-2" d="M12.09,39.4c.75,14.17,12.77,25.18,27.47,25.18S66.29,53.57,67,39.4Z"/><path class="cls-3" d="M39.57,46c-9.08,0-17.32,2.29-23.41,6A27.65,27.65,0,0,0,39.57,64.52,27.65,27.65,0,0,0,63,52C56.89,48.24,48.65,46,39.57,46Z"/><path class="cls-4" d="M16.55,21.15l9.19,4.6a.07.07,0,0,1,0,.13L16.55,31"/><path class="cls-4" d="M62.62,21.15l-9.19,4.6a.07.07,0,0,0,0,.13L62.62,31"/></g></svg>