<?xml version="1.0" encoding="iso-8859-1"?>
<!-- Generator: Adobe Illustrator 19.1.0, SVG Export Plug-In . SVG Version: 6.00 Build 0)  -->
<!DOCTYPE svg PUBLIC "-//W3C//DTD SVG 1.1//EN" "http://www.w3.org/Graphics/SVG/1.1/DTD/svg11.dtd">
<svg version="1.1" xmlns="http://www.w3.org/2000/svg" xmlns:xlink="http://www.w3.org/1999/xlink" x="0px" y="0px"
   viewBox="0 0 120 120" style="enable-background:new 0 0 120 120;" xml:space="preserve">
<g id="Guides">
</g>
<g id="New_Icons">
  <path style="fill:none;" d="M100.2,41.2L100.2,41.2l-46,46l0,0C53.1,88.3,51.6,89,50,89c-1.7,0-3.2-0.7-4.2-1.8l0,0l-26-26l0,0
    C18.7,60.1,18,58.6,18,57c0-3.3,2.7-6,6-6c1.7,0,3.2,0.7,4.2,1.8l0,0L50,74.6l41.8-41.8l0,0c1.1-1.1,2.6-1.8,4.2-1.8
    c3.3,0,6,2.7,6,6C102,38.7,101.3,40.2,100.2,41.2z"/>
</g>
<g id="Unused__x2F__Alternate_icons" style="display:none;">
</g>
</svg>
